<svg xmlns="http://www.w3.org/2000/svg"
aria-label="Git" role="img"
viewBox="0 0 512 512">
<defs>
    <clipPath id="rounded-corners">
      <!-- Define a rectangle that matches the viewBox size with rounded corners -->
      <rect x="0" y="0" width="512" height="512" rx="100" ry="100"/>
    </clipPath>
</defs>
<g clip-path="url(#rounded-corners)">
<rect x="0" y="0" width="512" height="512" rx="50" fill="#ed2224"/><path
d="m0 0H512V512H0"
fill="#fff"/><path fill="#f05133" d="m441 240L272 71a24 24 0 00-34 0l-35 35 44 44a29 29 0 0137 37l43 43a29 29 0 11-18 17l-40-40v104a29 29 0 11-24-1V205a29 29 0 01-15-38l-44-44L71 238a24 24 0 000 34l168 169a24 24 0 0033 0L441 272a25 25 0 000-32"/></g></svg>